<svg xmlns="http://www.w3.org/2000/svg" width="99.86" height="116.91" viewBox="0 0 99.86 116.91"><title>dental health</title><path d="M85.42 46.53a28.33 28.33 0 0 0-42.2-24.7A28.33 28.33 0 0 0 1 46.53c-.57 45.1 18.37 64.17 18.37 64.17s4.71 5.2 8.33 5.2c4.92 0 8-1.49 8.9-9 .53-4.63-2.08-22.15 6.5-22.15s6.61 18.1 6.7 22.15a9 9 0 0 0 8.9 9c3.61 0 8.33-5.2 8.33-5.2S85.83 91.77 85.41 47c0-.12.01-.29.01-.47z" fill="#fff" stroke="#002d5b" stroke-miterlimit="10" stroke-width="2"/><path d="M43.66 22.72s-4.49 2.07-8.86 4.42c-2.19 1.17-4.34 2.4-5.92 3.39s-2.59 1.71-2.59 1.71.94-.82 2.41-2 3.51-2.6 5.58-4c4.14-2.79 8.45-5.34 8.45-5.34z" fill="#002d5b"/><path fill="#dba12c" stroke="#002d5b" stroke-linecap="round" stroke-linejoin="round" stroke-width="2" d="M75.74 1l3.27 19.86 19.85 3.27-19.85 3.26-3.27 19.86-3.27-19.86-19.86-3.26 19.86-3.27L75.74 1z"/><path fill="none" stroke="#002d5b" stroke-linecap="round" stroke-linejoin="round" stroke-width="2" d="M70.26 42.15l1.24 5.88M57.01 29.39l11 2 1.39 6.66"/></svg>